<svg width="1600" height="640" viewBox="0 0 1600 640" fill="none" xmlns="http://www.w3.org/2000/svg">
  <defs>
    <linearGradient id="bg" x1="0" y1="0" x2="1600" y2="640" gradientUnits="userSpaceOnUse">
      <stop stop-color="#060914"/>
      <stop offset="0.48" stop-color="#0B1020"/>
      <stop offset="1" stop-color="#111827"/>
    </linearGradient>
    <radialGradient id="glowBlue" cx="0" cy="0" r="1" gradientUnits="userSpaceOnUse" gradientTransform="translate(1220 250) rotate(129.806) scale(470 420)">
      <stop stop-color="#4F8EF7" stop-opacity="0.42"/>
      <stop offset="1" stop-color="#4F8EF7" stop-opacity="0"/>
    </radialGradient>
    <radialGradient id="glowPurple" cx="0" cy="0" r="1" gradientUnits="userSpaceOnUse" gradientTransform="translate(930 520) rotate(-35.919) scale(430 330)">
      <stop stop-color="#7C5CFC" stop-opacity="0.35"/>
      <stop offset="1" stop-color="#7C5CFC" stop-opacity="0"/>
    </radialGradient>
    <linearGradient id="title" x1="120" y1="128" x2="580" y2="250" gradientUnits="userSpaceOnUse">
      <stop stop-color="#EAF2FF"/>
      <stop offset="0.47" stop-color="#93C5FD"/>
      <stop offset="1" stop-color="#A78BFA"/>
    </linearGradient>
    <filter id="softShadow" x="-40" y="-40" width="1680" height="720" filterUnits="userSpaceOnUse" color-interpolation-filters="sRGB">
      <feDropShadow dx="0" dy="24" stdDeviation="32" flood-color="#000000" flood-opacity="0.32"/>
    </filter>
    <filter id="nodeGlow" x="-40" y="-40" width="80" height="80" filterUnits="userSpaceOnUse" color-interpolation-filters="sRGB">
      <feGaussianBlur stdDeviation="6" result="blur"/>
      <feMerge>
        <feMergeNode in="blur"/>
        <feMergeNode in="SourceGraphic"/>
      </feMerge>
    </filter>
    <pattern id="grid" width="42" height="42" patternUnits="userSpaceOnUse">
      <path d="M42 0H0V42" stroke="#FFFFFF" stroke-opacity="0.045" stroke-width="1"/>
    </pattern>
  </defs>

  <rect width="1600" height="640" rx="36" fill="url(#bg)"/>
  <rect width="1600" height="640" rx="36" fill="url(#grid)"/>
  <rect width="1600" height="640" rx="36" fill="url(#glowBlue)"/>
  <rect width="1600" height="640" rx="36" fill="url(#glowPurple)"/>

  <g opacity="0.36">
    <path d="M1130 70C1234 108 1294 168 1346 252C1390 324 1446 360 1536 386" stroke="#4F8EF7" stroke-opacity="0.24" stroke-width="2"/>
    <path d="M1010 546C1090 470 1180 426 1308 428C1394 430 1458 402 1530 336" stroke="#7C5CFC" stroke-opacity="0.24" stroke-width="2"/>
  </g>

  <g filter="url(#softShadow)">
    <rect x="84" y="82" width="660" height="476" rx="28" fill="#0F172A" fill-opacity="0.72" stroke="#334155" stroke-opacity="0.55"/>
    <rect x="112" y="110" width="64" height="64" rx="18" fill="#111827" stroke="#4F8EF7" stroke-opacity="0.7"/>
    <path d="M134 152L144 126L154 152M138 144H150" stroke="#93C5FD" stroke-width="5" stroke-linecap="round" stroke-linejoin="round"/>
    <path d="M162 128H170C178 128 183 133 183 140C183 147 178 152 170 152H162V128Z" stroke="#A78BFA" stroke-width="5" stroke-linejoin="round"/>

    <text x="204" y="150" font-family="Inter, ui-sans-serif, system-ui, -apple-system, BlinkMacSystemFont, Segoe UI, sans-serif" font-size="34" font-weight="800" fill="url(#title)">3DArxiv</text>
    <text x="204" y="182" font-family="Inter, ui-sans-serif, system-ui, -apple-system, BlinkMacSystemFont, Segoe UI, sans-serif" font-size="16" font-weight="600" fill="#94A3B8" letter-spacing="2">SEMANTIC ARXIV INTELLIGENCE</text>

    <text x="116" y="260" font-family="Inter, ui-sans-serif, system-ui" font-size="42" font-weight="800" fill="#F8FAFC">AI Research Radar for 3D, Robotics &amp; Agents</text>
    <text x="116" y="312" font-family="Inter, ui-sans-serif, system-ui" font-size="23" font-weight="500" fill="#CBD5E1">自动追踪 17 个 ArXiv 研究方向，生成语义知识图谱、RSS、AI 摘要与可视化洞察。</text>

    <g transform="translate(116 372)">
      <rect width="142" height="40" rx="20" fill="#1D4ED8" fill-opacity="0.24" stroke="#60A5FA" stroke-opacity="0.55"/>
      <text x="22" y="26" font-family="Inter, ui-sans-serif" font-size="15" font-weight="700" fill="#BFDBFE">Daily Update</text>
      <rect x="158" width="150" height="40" rx="20" fill="#6D28D9" fill-opacity="0.24" stroke="#A78BFA" stroke-opacity="0.55"/>
      <text x="180" y="26" font-family="Inter, ui-sans-serif" font-size="15" font-weight="700" fill="#DDD6FE">Knowledge Graph</text>
      <rect x="324" width="126" height="40" rx="20" fill="#047857" fill-opacity="0.22" stroke="#34D399" stroke-opacity="0.52"/>
      <text x="350" y="26" font-family="Inter, ui-sans-serif" font-size="15" font-weight="700" fill="#BBF7D0">Gemini AI</text>
    </g>
  </g>

  <g transform="translate(820 80)">
    <rect x="0" y="0" width="680" height="480" rx="28" fill="#020617" fill-opacity="0.42" stroke="#334155" stroke-opacity="0.55"/>
    <path d="M148 286L268 178L398 238L528 126" stroke="#60A5FA" stroke-opacity="0.58" stroke-width="3"/>
    <path d="M148 286L340 346L528 126" stroke="#A78BFA" stroke-opacity="0.45" stroke-width="3"/>
    <path d="M268 178L340 346L488 354" stroke="#34D399" stroke-opacity="0.45" stroke-width="3" stroke-dasharray="9 9"/>
    <path d="M398 238L488 354" stroke="#F59E0B" stroke-opacity="0.42" stroke-width="3"/>
    <path d="M208 402L340 346" stroke="#60A5FA" stroke-opacity="0.36" stroke-width="2"/>
    <path d="M208 402L148 286" stroke="#F472B6" stroke-opacity="0.44" stroke-width="2"/>
    <path d="M268 178L208 92" stroke="#60A5FA" stroke-opacity="0.3" stroke-width="2"/>
    <path d="M398 238L570 246" stroke="#A78BFA" stroke-opacity="0.32" stroke-width="2"/>

    <g filter="url(#nodeGlow)">
      <circle cx="148" cy="286" r="22" fill="#4F8EF7"/>
      <circle cx="268" cy="178" r="18" fill="#7C5CFC"/>
      <circle cx="398" cy="238" r="20" fill="#34D399"/>
      <circle cx="528" cy="126" r="24" fill="#F472B6"/>
      <circle cx="340" cy="346" r="19" fill="#F59E0B"/>
      <circle cx="488" cy="354" r="15" fill="#94A3B8" fill-opacity="0.88"/>
      <circle cx="208" cy="402" r="17" fill="#38BDF8"/>
      <circle cx="208" cy="92" r="13" fill="#64748B"/>
      <circle cx="570" cy="246" r="13" fill="#64748B"/>
    </g>

    <g font-family="Inter, ui-sans-serif" font-size="14" font-weight="700">
      <text x="92" y="326" fill="#BFDBFE">Robotics</text>
      <text x="232" y="150" fill="#DDD6FE">3D Vision</text>
      <text x="366" y="214" fill="#BBF7D0">Agents</text>
      <text x="464" y="92" fill="#FBCFE8">RL for AIGC</text>
      <text x="292" y="386" fill="#FDE68A">LLM + RL</text>
    </g>
  </g>
</svg>
